HIERARCHY
ROOT Hips
{
 OFFSET 0.000000 0.000000 0.000000
 CHANNELS 6 Xposition Yposition Zposition Yrotation Xrotation Zrotation
 JOINT Chest
 {
  OFFSET 0.000000 11.188203 -1.243134
  CHANNELS 3 Yrotation Xrotation Zrotation
  JOINT Chest2
  {
   OFFSET 0.000000 8.694345 0.000000
   CHANNELS 3 Yrotation Xrotation Zrotation
   JOINT Chest3
   {
    OFFSET 0.000000 7.947353 -0.067055
    CHANNELS 3 Yrotation Xrotation Zrotation
    JOINT Chest4
    {
     OFFSET 0.000000 7.938462 -0.067123
     CHANNELS 3 Yrotation Xrotation Zrotation
     JOINT Neck
     {
      OFFSET 0.000000 11.072855 0.000000
      CHANNELS 3 Yrotation Xrotation Zrotation
      JOINT Head
      {
       OFFSET 0.000000 7.944435 0.101354
       CHANNELS 3 Yrotation Xrotation Zrotation
       End Site
       {
        OFFSET 0.000000 14.965808 0.007867
       }
      }
     }
     JOINT RightCollar
     {
      OFFSET -2.558781 6.246898 0.000000
      CHANNELS 3 Yrotation Xrotation Zrotation
      JOINT RightShoulder
      {
       OFFSET -13.080511 0.000000 0.000000
       CHANNELS 3 Yrotation Xrotation Zrotation
       JOINT RightElbow
       {
        OFFSET -24.294498 0.000000 0.000000
        CHANNELS 3 Yrotation Xrotation Zrotation
        JOINT RightWrist
        {
         OFFSET -21.795270 0.000000 0.007911
         CHANNELS 3 Yrotation Xrotation Zrotation
         End Site
         {
          OFFSET -17.275366 0.000000 0.000000
         }
        }
       }
      }
     }
     JOINT LeftCollar
     {
      OFFSET 2.558781 6.246898 0.000000
      CHANNELS 3 Yrotation Xrotation Zrotation
      JOINT LeftShoulder
      {
       OFFSET 13.080511 0.000000 0.000000
       CHANNELS 3 Yrotation Xrotation Zrotation
       JOINT LeftElbow
       {
        OFFSET 24.294498 0.000000 0.000000
        CHANNELS 3 Yrotation Xrotation Zrotation
        JOINT LeftWrist
        {
         OFFSET 21.795270 0.000000 0.007911
         CHANNELS 3 Yrotation Xrotation Zrotation
         End Site
         {
          OFFSET 17.275366 0.000000 0.000000
         }
        }
       }
      }
     }
    }
   }
  }
 }
 JOINT RightHip
 {
  OFFSET -9.468707 0.165232 -0.018359
  CHANNELS 3 Yrotation Xrotation Zrotation
  JOINT RightKnee
  {
   OFFSET 0.000000 -44.114159 0.000800
   CHANNELS 3 Yrotation Xrotation Zrotation
   JOINT RightAnkle
   {
    OFFSET 0.000000 -41.090006 0.027028
    CHANNELS 3 Yrotation Xrotation Zrotation
    JOINT RightToe
    {
     OFFSET 0.000000 -6.365594 13.985168
     CHANNELS 3 Yrotation Xrotation Zrotation
     End Site
     {
      OFFSET 0.000000 -4.849568 5.636099
     }
    }
   }
  }
 }
 JOINT LeftHip
 {
  OFFSET 9.468707 0.163024 -0.018114
  CHANNELS 3 Yrotation Xrotation Zrotation
  JOINT LeftKnee
  {
   OFFSET 0.000000 -44.114159 0.000800
   CHANNELS 3 Yrotation Xrotation Zrotation
   JOINT LeftAnkle
   {
    OFFSET 0.000000 -41.090006 0.027028
    CHANNELS 3 Yrotation Xrotation Zrotation
    JOINT LeftToe
    {
     OFFSET 0.000000 -6.365594 13.985168
     CHANNELS 3 Yrotation Xrotation Zrotation
     End Site
     {
      OFFSET 0.000000 -4.849568 5.636099
     }
    }
   }
  }
 }
}
MOTION
Frames: 17
Frame Time: 0.004167
-33.764652 96.170023 2.537846 1.729400 5.990766 0.356595 0.667613 -2.176230 0.310984 0.283673 -6.793089 0.142300 0.281704 -0.972728 0.171100 0.224682 5.107202 0.129293 3.781659 14.002310 0.211323 7.043082 -9.944450 -1.082490 1.043472 2.014354 1.364354 -0.688922 -4.460652 -1.672151 -4.376910 4.327604 4.212081 3.122429 -0.502101 10.664702 0.511265 0.206989 -3.162002 -0.721072 1.226121 2.812703 1.548432 -0.206847 -1.643544 -2.701244 -2.880842 -14.790663 -3.258619 -1.666820 -0.662457 -0.542866 1.770472 0.032583 -5.342794 -5.418374 1.417069 0.000000 0.000000 0.000000 0.283983 0.546652 -0.392849 -0.672822 -2.330509 -0.264189 -10.827815 -3.958578 7.306758 -0.000000 0.000000 0.000000
-33.764768 96.170711 2.538437 1.730578 5.983232 0.351552 0.665421 -2.173680 0.316324 0.282481 -6.791949 0.144675 0.280521 -0.971588 0.173355 0.223971 5.108058 0.130988 3.782630 13.999564 0.209926 7.045578 -9.949417 -1.085658 1.051701 2.009527 1.359099 -0.673847 -4.476517 -1.739287 -4.412444 4.309396 4.240391 3.141603 -0.508280 10.720395 0.503735 0.199635 -3.150680 -0.710708 1.258071 2.870011 1.557114 -0.154350 -1.651351 -2.756404 -2.890482 -14.820827 -3.263042 -1.658734 -0.657894 -0.542275 1.770170 0.033050 -5.339277 -5.415308 1.415161 0.000000 0.000000 -0.000000 0.279314 0.554726 -0.386713 -0.669545 -2.331492 -0.265518 -10.828131 -3.958346 7.306224 0.000000 -0.000000 0.000000
-33.765089 96.171505 2.539032 1.732411 5.974682 0.346099 0.663784 -2.170828 0.321555 0.281540 -6.790674 0.147003 0.279586 -0.970312 0.175587 0.223444 5.109015 0.132667 3.783559 13.996209 0.208954 7.047858 -9.955543 -1.088045 1.058407 2.003728 1.355655 -0.657185 -4.497500 -1.812364 -4.452988 4.293990 4.273522 3.163657 -0.511604 10.770629 0.493369 0.192063 -3.137198 -0.704171 1.313850 2.928482 1.572707 -0.078481 -1.659800 -2.805151 -2.888346 -14.843600 -3.267879 -1.649524 -0.652735 -0.541641 1.769770 0.033375 -5.335989 -5.411922 1.413257 -0.000000 -0.000000 0.000000 0.273501 0.563705 -0.379949 -0.665368 -2.332480 -0.266955 -10.828804 -3.957816 7.305738 -0.000000 -0.000000 0.000000
-33.765576 96.172387 2.539619 1.734859 5.965351 0.340320 0.662586 -2.167747 0.326699 0.280797 -6.789298 0.149294 0.278849 -0.968936 0.177803 0.223063 5.110048 0.134333 3.784481 13.992325 0.208319 7.050015 -9.962669 -1.089825 1.063859 1.997132 1.353640 -0.639253 -4.522444 -1.890379 -4.497709 4.280843 4.310592 3.188102 -0.512503 10.816326 0.480695 0.184311 -3.121945 -0.700841 1.388899 2.987719 1.593713 0.016066 -1.668761 -2.848373 -2.876720 -14.860707 -3.273018 -1.639443 -0.647085 -0.541033 1.769295 0.033572 -5.332944 -5.408280 1.411363 -0.000000 0.000000 0.000000 0.266817 0.573367 -0.372667 -0.660513 -2.333488 -0.268489 -10.829845 -3.957018 7.305284 -0.000000 -0.000000 0.000000
-33.766191 96.173340 2.540185 1.737881 5.955470 0.334295 0.661713 -2.164512 0.331780 0.280201 -6.787853 0.151559 0.278257 -0.967491 0.180007 0.222791 5.111132 0.135992 3.785428 13.987994 0.207934 7.052140 -9.970638 -1.091170 1.068329 1.989910 1.352672 -0.620374 -4.550195 -1.972325 -4.545772 4.269405 4.350723 3.214444 -0.511409 10.858408 0.466242 0.176415 -3.105311 -0.700105 1.478656 3.047327 1.618651 0.124591 -1.678105 -2.886941 -2.857897 -14.873892 -3.278345 -1.628743 -0.641045 -0.540523 1.768767 0.033656 -5.330154 -5.404443 1.409484 0.000000 -0.000000 0.000000 0.259533 0.583493 -0.364979 -0.655201 -2.334528 -0.270111 -10.831267 -3.955984 7.304845 0.000000 0.000000 -0.000000
-33.766895 96.174346 2.540719 1.741436 5.945272 0.328107 0.661051 -2.161199 0.336822 0.279700 -6.786373 0.153806 0.277760 -0.966010 0.182204 0.222589 5.112243 0.137644 3.786432 13.983298 0.207712 7.054327 -9.979290 -1.092254 1.072088 1.982235 1.352366 -0.600876 -4.579600 -2.057197 -4.596341 4.259124 4.393036 3.242190 -0.508752 10.897794 0.450537 0.168412 -3.087685 -0.701358 1.578560 3.106909 1.646057 0.242389 -1.687703 -2.921717 -2.834176 -14.884909 -3.283747 -1.617679 -0.634717 -0.540180 1.768209 0.033638 -5.327632 -5.400474 1.407626 0.000000 -0.000000 0.000000 0.251922 0.593861 -0.356996 -0.649653 -2.335615 -0.271813 -10.833080 -3.954742 7.304407 -0.000000 -0.000000 -0.000000
-33.767648 96.175387 2.541207 1.745484 5.934991 0.321836 0.660485 -2.157881 0.341848 0.279242 -6.784892 0.156047 0.277306 -0.964528 0.184398 0.222419 5.113355 0.139295 3.787526 13.978318 0.207564 7.056667 -9.988469 -1.093249 1.075408 1.974280 1.352341 -0.581091 -4.609507 -2.143986 -4.648575 4.249445 4.436659 3.270844 -0.504963 10.935403 0.434109 0.160337 -3.069455 -0.703999 1.684047 3.166075 1.674487 0.364753 -1.697420 -2.953564 -2.807860 -14.895518 -3.289113 -1.606502 -0.628205 -0.540073 1.767645 0.033532 -5.325392 -5.396436 1.405794 0.000000 -0.000000 0.000000 0.244254 0.604251 -0.348829 -0.644091 -2.336762 -0.273584 -10.835295 -3.953324 7.303952 0.000000 0.000000 0.000000
-33.768413 96.176446 2.541638 1.749983 5.924859 0.315566 0.659901 -2.154634 0.346880 0.278776 -6.783441 0.158291 0.276843 -0.963078 0.186595 0.222243 5.114443 0.140948 3.788744 13.973137 0.207402 7.059254 -9.998015 -1.094330 1.078560 1.966217 1.352215 -0.561358 -4.638769 -2.231683 -4.701635 4.239804 4.480724 3.299909 -0.500470 10.972151 0.417487 0.152226 -3.051012 -0.707435 1.790550 3.224438 1.702520 0.486968 -1.707117 -2.983346 -2.781256 -14.907487 -3.294329 -1.595466 -0.621611 -0.540274 1.767096 0.033353 -5.323445 -5.392392 1.403995 0.000000 -0.000000 -0.000000 0.236802 0.614442 -0.340588 -0.638735 -2.337984 -0.275415 -10.837926 -3.951759 7.303465 -0.000000 0.000000 0.000000
-33.769149 96.177505 2.541999 1.754894 5.915109 0.309378 0.659184 -2.151533 0.351942 0.278250 -6.782055 0.160548 0.276321 -0.961692 0.188798 0.222023 5.115483 0.142606 3.790117 13.967836 0.207140 7.062178 -10.007771 -1.095668 1.081816 1.958220 1.351603 -0.542022 -4.666238 -2.319275 -4.754676 4.229637 4.524366 3.328887 -0.495703 11.008951 0.401201 0.144116 -3.032745 -0.711077 1.893503 3.281618 1.728753 0.604315 -1.716649 -3.011936 -2.756675 -14.922583 -3.299283 -1.584824 -0.615036 -0.540852 1.766586 0.033112 -5.321806 -5.388403 1.402232 0.000000 -0.000000 -0.000000 0.229837 0.624212 -0.332383 -0.633807 -2.339293 -0.277298 -10.840982 -3.950079 7.302930 0.000000 0.000000 -0.000000
-33.769819 96.178547 2.542278 1.760176 5.905975 0.303354 0.658221 -2.148651 0.357057 0.277612 -6.780767 0.162828 0.275688 -0.960403 0.191013 0.221721 5.116450 0.144272 3.791679 13.962496 0.206690 7.065535 -10.017579 -1.097436 1.085447 1.950462 1.350125 -0.523434 -4.690770 -2.405751 -4.806854 4.218370 4.566728 3.357279 -0.491093 11.046716 0.385779 0.136040 -3.015042 -0.714344 1.988337 3.337240 1.751808 0.712069 -1.725864 -3.040206 -2.736432 -14.942578 -3.303863 -1.574830 -0.608582 -0.541876 1.766137 0.032824 -5.320486 -5.384533 1.400513 -0.000000 0.000000 -0.000000 0.223631 0.633341 -0.324324 -0.629528 -2.340704 -0.279222 -10.844475 -3.948312 7.302330 0.000000 0.000000 -0.000000
-33.770383 96.179554 2.542462 1.765787 5.897688 0.297575 0.656897 -2.146063 0.362248 0.276811 -6.779610 0.165140 0.274893 -0.959246 0.193244 0.221298 5.117318 0.145951 3.793463 13.957200 0.205964 7.069415 -10.027279 -1.099808 1.089726 1.943115 1.347397 -0.505951 -4.711223 -2.490096 -4.857322 4.205428 4.606953 3.384582 -0.487067 11.086357 0.371751 0.128035 -2.998293 -0.716656 2.070484 3.390933 1.770324 0.805503 -1.734604 -3.069026 -2.722844 -14.969245 -3.307955 -1.565736 -0.602352 -0.543417 1.765773 0.032502 -5.319499 -5.380844 1.398842 0.000000 0.000000 0.000000 0.218454 0.641606 -0.316521 -0.626119 -2.342231 -0.281179 -10.848418 -3.946489 7.301651 -0.000000 -0.000000 0.000000
-33.770802 96.180508 2.542539 1.771687 5.890483 0.292125 0.655097 -2.143844 0.367538 0.275795 -6.778617 0.167495 0.273884 -0.958252 0.195496 0.220717 5.118063 0.147644 3.795501 13.952030 0.204875 7.073912 -10.036713 -1.102956 1.094925 1.936355 1.343037 -0.489934 -4.726457 -2.571294 -4.905230 4.190226 4.644190 3.410294 -0.484055 11.128782 0.359647 0.120135 -2.982887 -0.717440 2.135372 3.442329 1.782957 0.879883 -1.742709 -3.099251 -2.718237 -15.004360 -3.311449 -1.557795 -0.596447 -0.545546 1.765516 0.032159 -5.318858 -5.377399 1.397225 0.000000 -0.000000 0.000000 0.214579 0.648787 -0.309083 -0.623802 -2.343887 -0.283159 -10.852820 -3.944641 7.300876 0.000000 -0.000000 0.000000
-33.771038 96.181392 2.542497 1.777834 5.884591 0.287084 0.652708 -2.142067 0.372950 0.274512 -6.777821 0.169903 0.272611 -0.957456 0.197774 0.219939 5.118661 0.149357 3.797827 13.947066 0.203335 7.079119 -10.045723 -1.107053 1.101314 1.930354 1.336663 -0.475748 -4.735333 -2.648328 -4.949730 4.172179 4.677592 3.433913 -0.482483 11.174898 0.349997 0.112374 -2.969214 -0.716126 2.178430 3.491064 1.788377 0.930475 -1.750015 -3.131707 -2.724941 -15.049703 -3.314230 -1.551262 -0.590970 -0.548331 1.765389 0.031808 -5.318576 -5.374260 1.395667 -0.000000 0.000000 -0.000000 0.212277 0.654661 -0.302121 -0.622797 -2.345686 -0.285153 -10.857695 -3.942798 7.299989 0.000000 -0.000000 -0.000000
-33.771095 96.182219 2.542342 1.784546 5.880160 0.282291 0.649688 -2.140812 0.378606 0.272940 -6.777257 0.172417 0.271049 -0.956891 0.200129 0.218952 5.119085 0.151127 3.800514 13.942196 0.201398 7.085157 -10.054519 -1.112035 1.109010 1.924909 1.327954 -0.462935 -4.737757 -2.722944 -4.994016 4.151490 4.708800 3.455111 -0.481717 11.225258 0.342609 0.104351 -2.957022 -0.712682 2.199064 3.538280 1.786980 0.954772 -1.756666 -3.165509 -2.743259 -15.108568 -3.316116 -1.546255 -0.585712 -0.552061 1.765424 0.031430 -5.318858 -5.371388 1.394131 0.000000 0.000000 -0.000000 0.211679 0.659095 -0.295457 -0.623273 -2.347706 -0.287136 -10.863241 -3.940922 7.298952 0.000000 -0.000000 -0.000000
-33.771018 96.183016 2.542092 1.792067 5.877030 0.277553 0.646136 -2.140044 0.384558 0.271120 -6.776910 0.175063 0.269242 -0.956542 0.202589 0.217788 5.119346 0.152977 3.803571 13.937258 0.199192 7.092005 -10.063408 -1.117673 1.117786 1.919700 1.317122 -0.450824 -4.734913 -2.797356 -5.041043 4.128925 4.739797 3.474231 -0.480881 11.279217 0.336786 0.095772 -2.945727 -0.707730 2.201877 3.585112 1.780537 0.956330 -1.762919 -3.199112 -2.770861 -15.181141 -3.317109 -1.542573 -0.580431 -0.556845 1.765618 0.030997 -5.319820 -5.368691 1.392586 -0.000000 0.000000 0.000000 0.212574 0.662244 -0.288858 -0.625095 -2.349981 -0.289101 -10.869575 -3.938957 7.297759 -0.000000 -0.000000 0.000000
-33.770830 96.183789 2.541752 1.800252 5.874971 0.272907 0.642148 -2.139676 0.390725 0.269098 -6.776740 0.177803 0.267233 -0.956372 0.205124 0.216479 5.119474 0.154882 3.806939 13.932263 0.196744 7.099536 -10.072374 -1.123892 1.127409 1.914731 1.304587 -0.439460 -4.727586 -2.871251 -5.089608 4.104742 4.770249 3.491771 -0.480038 11.335888 0.332294 0.086831 -2.935218 -0.701678 2.190097 3.631179 1.769785 0.939507 -1.768791 -3.232322 -2.806134 -15.264541 -3.317384 -1.539992 -0.575175 -0.562479 1.765937 0.030512 -5.321343 -5.366150 1.391050 -0.000000 0.000000 0.000000 0.214717 0.664321 -0.282351 -0.628031 -2.352460 -0.291068 -10.876578 -3.936904 7.296441 0.000000 0.000000 -0.000000
-33.770552 96.184540 2.541325 1.808953 5.873757 0.268388 0.637818 -2.139616 0.397026 0.266918 -6.776707 0.180602 0.265069 -0.956338 0.207702 0.215056 5.119499 0.156819 3.810557 13.927220 0.194081 7.107625 -10.081403 -1.130618 1.137645 1.910004 1.290767 -0.428888 -4.716559 -2.944316 -5.138502 4.079191 4.799822 3.508233 -0.479259 11.394383 0.328902 0.077727 -2.925384 -0.694934 2.166953 3.676100 1.755449 0.908660 -1.774299 -3.264953 -2.847458 -15.355881 -3.317112 -1.538286 -0.569991 -0.568762 1.766351 0.029977 -5.323306 -5.363747 1.389539 -0.000000 0.000000 0.000000 0.217861 0.665539 -0.275962 -0.631849 -2.355092 -0.293057 -10.884136 -3.934764 7.295027 -0.000000 -0.000000 0.000000
